<svg xmlns="http://www.w3.org/2000/svg" width="65" height="65" viewBox="0 0 65 65">
  <g id="Group_153" data-name="Group 153" transform="translate(-0.362)">
    <circle id="Ellipse_135" data-name="Ellipse 135" cx="32.5" cy="32.5" r="32.5" transform="translate(0.362)" fill="#2ba8de"/>
    <g id="noun_trust_4145331" transform="translate(11.266 15.343)">
      <path id="Path_229" data-name="Path 229" d="M40.405,26.485a.63.63,0,0,1,.4.171l1.078,1.061a.705.705,0,0,1,0,1.008l-5.148,5.209-1.361,1.344a.724.724,0,0,1-1.019,0l-3.93-3.922a.725.725,0,0,1,0-1.02l1.1-1.109a.711.711,0,0,1,1.011,0l2.338,2.333L39.7,26.74A.934.934,0,0,1,40.405,26.485Zm-4.26-7.162a.428.428,0,0,0-.168.036l-9.677,4.2a.531.531,0,0,0-.358.5V26.89a15.66,15.66,0,0,0,3.252,10.087,22.618,22.618,0,0,0,6.958,5.671,22.487,22.487,0,0,0,6.959-5.671A15.665,15.665,0,0,0,46.364,26.89V24.058a.523.523,0,0,0-.358-.5l-9.677-4.2A.408.408,0,0,0,36.145,19.323Z" transform="translate(-14.803 -15.805)" fill="#fff"/>
      <path id="Path_230" data-name="Path 230" d="M73.222,19.01a5.722,5.722,0,0,1,2.064,4.361A3.733,3.733,0,0,1,73.049,26.6a3.039,3.039,0,0,1-3.325-.329,4.454,4.454,0,0,1-1.405-3.5.283.283,0,0,1,.413-.291,8.393,8.393,0,0,1,2.942,1.57c-.35-1.783.505-3.6,1.058-4.939A.291.291,0,0,1,73.222,19.01Z" transform="translate(-34.452 -15.617)" fill="#fff"/>
      <path id="Path_231" data-name="Path 231" d="M77.178,47.079a5.711,5.711,0,0,1-.71,4.771A3.731,3.731,0,0,1,72.811,53.3a3.039,3.039,0,0,1-2.581-2.123,4.443,4.443,0,0,1,.78-3.689.282.282,0,0,1,.506-.011,8.45,8.45,0,0,1,1.573,2.939c.7-1.676,2.416-2.707,3.623-3.517A.292.292,0,0,1,77.178,47.079Z" transform="translate(-35.276 -28.561)" fill="#fff"/>
      <path id="Path_232" data-name="Path 232" d="M70.532,59.731a5.7,5.7,0,0,1-2.684,4.005,3.732,3.732,0,0,1-3.924-.26,3.032,3.032,0,0,1-1.42-3.022,4.448,4.448,0,0,1,2.286-3,.283.283,0,0,1,.461.21,8.394,8.394,0,0,1,.159,3.33c1.349-1.216,3.344-1.411,4.782-1.626A.29.29,0,0,1,70.532,59.731Z" transform="translate(-31.737 -33.456)" fill="#fff"/>
      <path id="Path_233" data-name="Path 233" d="M45.23,72.2a1.835,1.835,0,1,1-1.836-1.835A1.838,1.838,0,0,1,45.23,72.2Z" transform="translate(-22.044 -39.474)" fill="#fff" fill-rule="evenodd"/>
      <path id="Path_234" data-name="Path 234" d="M68.638,18.69c-2.6-.822-2.83-2.559-2.83-5.352,0-.572.1-.631.536-.538a3.954,3.954,0,0,1,3.031,5.631C69.2,18.807,68.979,18.8,68.638,18.69Z" transform="translate(-33.287 -12.764)" fill="#fff"/>
      <path id="Path_235" data-name="Path 235" d="M77.548,32.107a5.7,5.7,0,0,1,1.056,4.7,3.729,3.729,0,0,1-2.891,2.668,3.035,3.035,0,0,1-3.171-1.053,4.454,4.454,0,0,1-.6-3.723.283.283,0,0,1,.469-.19,8.424,8.424,0,0,1,2.525,2.175c.048-1.815,1.279-3.4,2.115-4.587A.289.289,0,0,1,77.548,32.107Z" transform="translate(-36.06 -21.665)" fill="#fff"/>
      <path id="Path_236" data-name="Path 236" d="M59.869,68.894a5.723,5.723,0,0,1-4.249,2.283,3.736,3.736,0,0,1-3.343-2.07,3.041,3.041,0,0,1,.159-3.338,4.458,4.458,0,0,1,3.424-1.581.282.282,0,0,1,.31.4A8.351,8.351,0,0,1,54.754,67.6c1.76-.441,3.615.324,4.987.8A.292.292,0,0,1,59.869,68.894Z" transform="translate(-26.82 -36.607)" fill="#fff"/>
      <path id="Path_237" data-name="Path 237" d="M10.714,19.01a5.721,5.721,0,0,0-2.062,4.361A3.723,3.723,0,0,0,10.889,26.6a3.037,3.037,0,0,0,3.324-.329,4.451,4.451,0,0,0,1.4-3.5.283.283,0,0,0-.414-.291,8.433,8.433,0,0,0-2.941,1.57c.352-1.783-.506-3.6-1.057-4.939A.293.293,0,0,0,10.714,19.01Z" transform="translate(-6.783 -15.617)" fill="#fff"/>
      <path id="Path_238" data-name="Path 238" d="M6.485,47.079a5.724,5.724,0,0,0,.71,4.771A3.736,3.736,0,0,0,10.853,53.3a3.035,3.035,0,0,0,2.579-2.123,4.445,4.445,0,0,0-.779-3.689.282.282,0,0,0-.506-.011,8.352,8.352,0,0,0-1.569,2.939c-.7-1.676-2.419-2.707-3.627-3.517A.292.292,0,0,0,6.485,47.079Z" transform="translate(-5.686 -28.561)" fill="#fff"/>
      <path id="Path_239" data-name="Path 239" d="M12.447,59.731a5.715,5.715,0,0,0,2.685,4.005,3.731,3.731,0,0,0,3.924-.26,3.033,3.033,0,0,0,1.421-3.022,4.456,4.456,0,0,0-2.285-3,.284.284,0,0,0-.461.21,8.417,8.417,0,0,0-.162,3.33c-1.349-1.216-3.344-1.411-4.78-1.626A.291.291,0,0,0,12.447,59.731Z" transform="translate(-8.542 -33.456)" fill="#fff"/>
      <path id="Path_240" data-name="Path 240" d="M17.9,18.69c2.6-.822,2.833-2.559,2.833-5.352,0-.572-.1-.631-.536-.538a3.952,3.952,0,0,0-3.031,5.631C17.341,18.807,17.559,18.8,17.9,18.69Z" transform="translate(-10.55 -12.764)" fill="#fff"/>
      <path id="Path_241" data-name="Path 241" d="M6.386,32.107a5.714,5.714,0,0,0-1.056,4.7A3.737,3.737,0,0,0,8.224,39.48a3.038,3.038,0,0,0,3.171-1.053A4.458,4.458,0,0,0,12,34.7a.281.281,0,0,0-.466-.19A8.367,8.367,0,0,0,9,36.689c-.05-1.815-1.282-3.4-2.115-4.587A.292.292,0,0,0,6.386,32.107Z" transform="translate(-5.173 -21.665)" fill="#fff"/>
      <path id="Path_242" data-name="Path 242" d="M23.1,68.894a5.725,5.725,0,0,0,4.248,2.283,3.741,3.741,0,0,0,3.347-2.07,3.038,3.038,0,0,0-.163-3.338A4.455,4.455,0,0,0,27.1,64.188a.283.283,0,0,0-.309.4A8.345,8.345,0,0,0,28.214,67.6c-1.763-.441-3.614.324-4.986.8A.292.292,0,0,0,23.1,68.894Z" transform="translate(-13.446 -36.607)" fill="#fff"/>
    </g>
  </g>
</svg>
