<svg xmlns="http://www.w3.org/2000/svg" width="65" height="65" viewBox="0 0 65 65">
  <g id="Group_190" data-name="Group 190" transform="translate(-225 -789)">
    <g id="Group_154" data-name="Group 154" transform="translate(225 788.974)">
      <circle id="Ellipse_144" data-name="Ellipse 144" cx="32.5" cy="32.5" r="32.5" transform="translate(0 0.026)" fill="#14dbce"/>
    </g>
    <g id="noun_Idea_3326995" transform="translate(235.4 796.69)">
      <g id="Group_158" data-name="Group 158" transform="translate(6.998 3)">
        <path id="Path_275" data-name="Path 275" d="M22.1,3a15.1,15.1,0,0,0-6.711,28.621V33.2H28.811V31.621A15.1,15.1,0,0,0,22.1,3Zm4.362,16.441-6.711,5.033a1.678,1.678,0,1,1-2.013-2.684l3.891-2.919-3.291-.822a1.678,1.678,0,0,1-.6-2.969l6.711-5.033a1.678,1.678,0,0,1,2.013,2.684l-3.89,2.919,3.291.822a1.677,1.677,0,0,1,.6,2.969ZM15.389,39.909a1.678,1.678,0,0,0,1.678,1.678v1.678a3.359,3.359,0,0,0,3.355,3.355h3.355a3.359,3.359,0,0,0,3.355-3.355V41.586a1.678,1.678,0,0,0,1.678-1.678V36.553H15.389Zm8.39,3.355H20.422V41.586h3.357Z" transform="translate(-6.998 -3)" fill="#fdfbf9"/>
      </g>
    </g>
  </g>
</svg>
