<svg xmlns="http://www.w3.org/2000/svg" width="65" height="64" viewBox="0 0 65 64">
  <g id="Group_191" data-name="Group 191" transform="translate(-225 -935)">
    <g id="Group_155" data-name="Group 155" transform="translate(225 934.685)">
      <ellipse id="Ellipse_145" data-name="Ellipse 145" cx="32.5" cy="32" rx="32.5" ry="32" transform="translate(0 0.315)" fill="#eb5eb0"/>
    </g>
    <g id="noun_competition_4160119" transform="translate(235.145 949.952)">
      <g id="Group_150" data-name="Group 150" transform="translate(0)">
        <path id="Path_254" data-name="Path 254" d="M12.9,54.4,12,60.435h2.647l.794-5.082-1.747-.529A2.806,2.806,0,0,1,12.9,54.4Z" transform="translate(-6.918 -33.731)" fill="#fff"/>
        <path id="Path_255" data-name="Path 255" d="M8.4,42.989a.671.671,0,0,0,.318.053,1.128,1.128,0,0,0,1.059-.794l.582-2.117,1.165-.582L11.1,43.783A1.286,1.286,0,0,0,12,45.16l3.653,1.165.053,3.229h2.647L18.3,45.319a1.255,1.255,0,0,0-.9-1.218l-2.329-.741.635-2.912,1.112,1.429a1.086,1.086,0,0,0,1.165.371l2.488-.635a1.091,1.091,0,0,0-.529-2.117l-1.8.476-1.376-1.8-.159-.159a2.885,2.885,0,0,0-1.27-.635l-2.065-.423a2.948,2.948,0,0,0-1.8.212L9.04,38.331a1.423,1.423,0,0,0-.635.741l-.741,2.594A1.059,1.059,0,0,0,8.4,42.989Z" transform="translate(-4.858 -27.01)" fill="#fff"/>
        <circle id="Ellipse_142" data-name="Ellipse 142" cx="2.329" cy="2.329" r="2.329" transform="translate(6.951 2.435)" fill="#fff"/>
        <path id="Path_256" data-name="Path 256" d="M83.247,54.771,81.5,55.3l.794,5.082h2.647l-.9-5.982A1.842,1.842,0,0,1,83.247,54.771Z" transform="translate(-45.583 -33.74)" fill="#fff"/>
        <path id="Path_257" data-name="Path 257" d="M67.388,41.692l2.488.635a1.187,1.187,0,0,0,1.165-.371l1.112-1.429.635,2.912-2.329.741a1.3,1.3,0,0,0-.9,1.218l-.053,4.235h2.647L72.2,46.4l3.653-1.165a1.365,1.365,0,0,0,.9-1.376l-.423-4.235,1.165.582.582,2.117a1.128,1.128,0,0,0,1.059.794.671.671,0,0,0,.318-.053,1.114,1.114,0,0,0,.741-1.376L79.457,39.1a1.252,1.252,0,0,0-.582-.688L76.44,37.245a2.681,2.681,0,0,0-1.8-.212l-2.065.423a2.885,2.885,0,0,0-1.27.635l-.159.159-1.376,1.8-1.8-.476a1.09,1.09,0,0,0-1.323.794A1.021,1.021,0,0,0,67.388,41.692Z" transform="translate(-38.564 -27.022)" fill="#fff"/>
        <path id="Path_258" data-name="Path 258" d="M46.04,64.064h-2.8V61.787a.791.791,0,0,0-.747-.847H38.386v-1.8a.791.791,0,0,0-.747-.847H33.532v-1.8a.791.791,0,0,0-.747-.847H28.678v-1.8A.791.791,0,0,0,27.931,53H21.256a.791.791,0,0,0-.747.847v1.8H16.4a.791.791,0,0,0-.747.847v1.8H11.548a.791.791,0,0,0-.747.847v1.8H6.694a.791.791,0,0,0-.747.847v2.276h-2.8a.854.854,0,0,0,0,1.694H46.04a.854.854,0,0,0,0-1.694Z" transform="translate(-2.4 -31.615)" fill="#fff"/>
        <circle id="Ellipse_143" data-name="Ellipse 143" cx="2.329" cy="2.329" r="2.329" transform="translate(32.823 2.435)" fill="#fff"/>
        <path id="Path_259" data-name="Path 259" d="M42.149,37.453l1.588,1.482c.106.053.106.159.106.265l-.423,2.117a.546.546,0,0,0,.794.582l1.853-1.059a.337.337,0,0,1,.318,0L48.236,41.9a.535.535,0,0,0,.794-.582L48.607,39.2c0-.106,0-.212.106-.265L50.3,37.453a.559.559,0,0,0-.318-.953l-2.17-.265a.291.291,0,0,1-.265-.159l-.9-1.959a.516.516,0,0,0-.953,0l-.9,1.959a.291.291,0,0,1-.265.159l-2.17.265A.571.571,0,0,0,42.149,37.453Z" transform="translate(-24.008 -26.546)" fill="#fff"/>
        <path id="Path_260" data-name="Path 260" d="M49.341,26.864a.724.724,0,0,0,.741-.741V23.741a.741.741,0,1,0-1.482,0v2.382A.724.724,0,0,0,49.341,26.864Z" transform="translate(-27.124 -23)" fill="#fff"/>
        <path id="Path_261" data-name="Path 261" d="M55.652,28.153a.477.477,0,0,0,.265.053.754.754,0,0,0,.688-.476l.794-2.223a.753.753,0,1,0-1.429-.476l-.794,2.223A.789.789,0,0,0,55.652,28.153Z" transform="translate(-30.687 -23.706)" fill="#fff"/>
        <path id="Path_262" data-name="Path 262" d="M41.37,27.6a.729.729,0,0,0,.688.476.477.477,0,0,0,.265-.053.824.824,0,0,0,.476-.953l-.794-2.223a.753.753,0,1,0-1.429.476Z" transform="translate(-22.856 -23.635)" fill="#fff"/>
      </g>
    </g>
  </g>
</svg>
