<svg xmlns="http://www.w3.org/2000/svg" width="65" height="65" viewBox="0 0 65 65">
  <g id="Group_156" data-name="Group 156" transform="translate(0 0.395)">
    <circle id="Ellipse_146" data-name="Ellipse 146" cx="32.5" cy="32.5" r="32.5" transform="translate(0 -0.395)" fill="#fa795b"/>
    <g id="noun_gold_3684651" transform="translate(12.259 13.05)">
      <g id="Group_151" data-name="Group 151" transform="translate(0 0)">
        <path id="Path_263" data-name="Path 263" d="M41.263,34.983H36.836a.649.649,0,0,0,.571-.286.555.555,0,0,0,.143-.571l-1.285-6.569a1.459,1.459,0,0,0-1.428-1.142H30.409a.649.649,0,0,0,.571-.286.555.555,0,0,0,.143-.571l-1.285-6.569a1.459,1.459,0,0,0-1.428-1.142H19.555a1.459,1.459,0,0,0-1.428,1.142l-1.285,6.569a.555.555,0,0,0,.143.571.882.882,0,0,0,.571.286H13.129A1.459,1.459,0,0,0,11.7,27.557l-1.285,6.569a.555.555,0,0,0,.143.571.882.882,0,0,0,.571.286H6.7a1.459,1.459,0,0,0-1.428,1.142L3.989,42.7a.555.555,0,0,0,.143.571.882.882,0,0,0,.571.286H43.262a.649.649,0,0,0,.571-.286.555.555,0,0,0,.143-.571l-1.285-6.569A1.522,1.522,0,0,0,41.263,34.983ZM25.411,26.415a.7.7,0,0,0-.714.571l-.714,3.642-.714-3.642a.7.7,0,0,0-.714-.571Zm-7.141,9.14L17.556,39.2l-.714-3.642a.7.7,0,0,0-.714-.571h2.856A.7.7,0,0,0,18.27,35.555Zm12.853,0L30.409,39.2,29.7,35.555a.7.7,0,0,0-.714-.571h2.856A.7.7,0,0,0,31.123,35.555ZM18.984,9.991a.686.686,0,0,1,.428-.643l2.642-1.357L23.411,5.35a.738.738,0,0,1,1.285,0l1.357,2.642L28.7,9.349a.821.821,0,0,1,.428.643.686.686,0,0,1-.428.643l-2.642,1.357L24.7,14.633a1.361,1.361,0,0,1-.714.357.686.686,0,0,1-.643-.428l-1.357-2.642-2.642-1.357A.636.636,0,0,1,18.984,9.991Zm-15,7.141a.686.686,0,0,1,.428-.643l2.642-1.357,1.357-2.642a.738.738,0,0,1,1.285,0l1.357,2.642L13.7,16.489a.821.821,0,0,1,.428.643.686.686,0,0,1-.428.643l-2.642,1.357L9.7,21.773a1.361,1.361,0,0,1-.714.357.686.686,0,0,1-.643-.428L6.988,19.06,4.346,17.7A.636.636,0,0,1,3.989,17.132Zm29.991,0a.686.686,0,0,1,.428-.643l2.642-1.357,1.357-2.642a.738.738,0,0,1,1.285,0l1.357,2.642,2.642,1.357a.821.821,0,0,1,.428.643.686.686,0,0,1-.428.643l-2.642,1.357-1.357,2.642a1.36,1.36,0,0,1-.714.357.686.686,0,0,1-.643-.428L36.978,19.06,34.336,17.7A.636.636,0,0,1,33.979,17.132Z" transform="translate(-3.961 -4.975)" fill="#fff"/>
      </g>
    </g>
  </g>
</svg>
