<svg xmlns="http://www.w3.org/2000/svg" width="65" height="64" viewBox="0 0 65 64">
  <g id="Group_157" data-name="Group 157" transform="translate(0 -0.356)">
    <ellipse id="Ellipse_147" data-name="Ellipse 147" cx="32.5" cy="32" rx="32.5" ry="32" transform="translate(0 0.356)" fill="#e3bd3a"/>
    <g id="noun_premium_2390072" transform="translate(11.463 14.736)">
      <g id="Group_152" data-name="Group 152" transform="translate(0 0)">
        <path id="Path_264" data-name="Path 264" d="M1.64,19.512,20.421,41.2,14.164,19.512Z" transform="translate(-1.568 -5.224)" fill="#fff"/>
        <path id="Path_265" data-name="Path 265" d="M17.21,19.512l6.955,24.1,6.955-24.1Z" transform="translate(-3.22 -5.224)" fill="#fff"/>
        <path id="Path_266" data-name="Path 266" d="M7.37,9.3,1.56,17.088H13.19Z" transform="translate(-1.56 -4.141)" fill="#fff"/>
        <path id="Path_267" data-name="Path 267" d="M47.061,17.088,41.25,9.3l-5.81,7.786Z" transform="translate(-5.154 -4.141)" fill="#fff"/>
        <path id="Path_268" data-name="Path 268" d="M15.311,16.5l6.311-8.447H9Z" transform="translate(-2.349 -4.008)" fill="#fff"/>
        <path id="Path_269" data-name="Path 269" d="M39.5,8.052H26.87l6.32,8.456Z" transform="translate(-4.245 -4.008)" fill="#fff"/>
        <path id="Path_270" data-name="Path 270" d="M30.861,16.955l-6.651-8.9-6.651,8.9Z" transform="translate(-3.257 -4.008)" fill="#fff"/>
        <path id="Path_271" data-name="Path 271" d="M27.33,41.207l18.79-21.7H33.6Z" transform="translate(-4.294 -5.224)" fill="#fff"/>
        <path id="Path_272" data-name="Path 272" d="M7.018,8.186l.821-1.842,1.508-.487L7.839,5.363,7.018,3.528,6.2,5.363l-1.508.494L6.2,6.344Z" transform="translate(-1.892 -3.528)" fill="#fff"/>
        <path id="Path_273" data-name="Path 273" d="M4.753,11.536l.518-1.153.948-.3-.948-.313L4.753,8.6,4.225,9.766l-.948.313.948.3Z" transform="translate(-1.742 -4.067)" fill="#fff"/>
        <path id="Path_274" data-name="Path 274" d="M12.335,7.168l.411-.912.742-.241-.742-.241-.411-.921-.411.921-.751.241.751.241Z" transform="translate(-2.58 -3.669)" fill="#fff"/>
      </g>
    </g>
  </g>
</svg>
